<svg xmlns="http://www.w3.org/2000/svg" viewBox="0 0 24 24" width="256" height="256">
  <!-- Material Design Icons "printer" glyph (Apache-2.0, Pictogrammers). -->
  <path fill="#2F3A46" d="M18,3H6V7H18M19,12A1,1 0 0,1 18,11A1,1 0 0,1 19,10A1,1 0 0,1 20,11A1,1 0 0,1 19,12M16,19H8V14H16M19,8H5A3,3 0 0,0 2,11V17H6V21H18V17H22V11A3,3 0 0,0 19,8Z"/>
  <!-- The output sheet is a cutout in that path, so it is filled explicitly
       to give the lettering a page to sit on in both light and dark themes. -->
  <rect x="8" y="14" width="8" height="5" fill="#FFFFFF"/>
  <text x="12" y="18.05" text-anchor="middle" font-family="Helvetica,Arial,sans-serif"
        font-weight="700" font-size="4.3" fill="#2F3A46" letter-spacing="0.1">HP</text>
</svg>
